<svg width="13" height="16" viewBox="0 0 13 16" fill="none" xmlns="http://www.w3.org/2000/svg">
<path d="M11.5955 0.801848C11.1025 0.93453 10.6072 1.06784 10.4197 1.41701L8.96437 4.48876L1.30839 6.54938L0.988368 7.52886L6.82394 8.04362L5.80374 10.6995L3.58193 11.2975L3.01427 12.3437L4.61059 12.5087L4.78353 13.3555C4.86188 13.6554 5.14628 13.8524 5.39161 13.7864L6.13221 13.5871L6.97106 15.148L7.53872 14.1019L7.01989 11.5615L8.64818 9.33652L11.6454 15.0819L12.2709 14.319L10.4837 5.56782L12.2445 2.71256C12.4343 2.36276 12.3192 1.79911 12.2035 1.23282C12.1462 0.952315 11.8408 0.735819 11.5955 0.801848Z" fill="#1D2E5B"/>
</svg>
