<svg width="64" height="64" viewBox="0 0 64 64" fill="none" xmlns="http://www.w3.org/2000/svg">
<path d="M3.70258 22.0373C1.59908 28.0119 1.44062 34.499 3.24989 40.5692C5.05916 46.6394 8.74332 51.9812 13.7745 55.8292C18.8058 59.6773 24.9259 61.8342 31.258 61.9908C37.5902 62.1475 43.8095 60.2959 49.0248 56.7013C54.2402 53.1068 58.184 47.9537 60.2912 41.9804C62.3984 36.0071 62.5609 29.5201 60.7555 23.4487C58.95 17.3774 55.2691 12.0333 50.2403 8.18214C45.2115 4.33094 39.0927 2.17025 32.7607 2.00965" stroke="#FF8D30" stroke-width="3" stroke-linecap="round"/>
<path d="M31.504 28.032C31.504 29.536 30.936 30.776 29.8 31.752C28.68 32.728 27.24 33.216 25.48 33.216C23.736 33.216 22.288 32.736 21.136 31.776C20 30.816 19.432 29.6 19.432 28.128C19.432 26.448 20.224 25.096 21.808 24.072C20.624 23.176 20.032 22.008 20.032 20.568C20.032 19.144 20.552 18.008 21.592 17.16C22.632 16.312 23.92 15.888 25.456 15.888C26.992 15.888 28.28 16.32 29.32 17.184C30.36 18.032 30.88 19.128 30.88 20.472C30.88 21.848 30.288 22.992 29.104 23.904C30.704 24.96 31.504 26.336 31.504 28.032ZM27.592 20.544C27.592 20.032 27.384 19.608 26.968 19.272C26.568 18.936 26.072 18.768 25.48 18.768C24.872 18.768 24.36 18.936 23.944 19.272C23.544 19.608 23.344 20.032 23.344 20.544C23.344 21.072 23.552 21.52 23.968 21.888C24.384 22.24 24.904 22.48 25.528 22.608C26.136 22.464 26.632 22.208 27.016 21.84C27.4 21.472 27.592 21.04 27.592 20.544ZM28.168 28.032C28.168 27.392 27.904 26.864 27.376 26.448C26.864 26.016 26.208 25.712 25.408 25.536C24.624 25.696 23.984 26 23.488 26.448C23.008 26.88 22.768 27.408 22.768 28.032C22.768 28.672 23.024 29.208 23.536 29.64C24.064 30.072 24.712 30.288 25.48 30.288C26.248 30.288 26.888 30.072 27.4 29.64C27.912 29.192 28.168 28.656 28.168 28.032ZM40.6489 21.192C40.6489 19.448 39.9129 18.576 38.4409 18.576C36.9689 18.576 36.2329 19.448 36.2329 21.192V27.96C36.2329 28.664 36.4249 29.224 36.8089 29.64C37.1929 30.056 37.7369 30.264 38.4409 30.264C39.1449 30.264 39.6889 30.056 40.0729 29.64C40.4569 29.224 40.6489 28.664 40.6489 27.96V21.192ZM34.2889 17.256C35.2169 16.184 36.6009 15.648 38.4409 15.648C40.2809 15.648 41.6649 16.184 42.5929 17.256C43.5209 18.312 43.9849 19.68 43.9849 21.36V27.96C43.9849 29.48 43.4889 30.736 42.4969 31.728C41.5209 32.72 40.1689 33.216 38.4409 33.216C36.7129 33.216 35.3529 32.72 34.3609 31.728C33.3849 30.736 32.8969 29.48 32.8969 27.96V21.36C32.8969 19.68 33.3609 18.312 34.2889 17.256Z" fill="#1D2E5B"/>
<line opacity="0.1" x1="15" y1="38.5" x2="49" y2="38.5" stroke="black"/>
<path opacity="0.4" d="M20.036 50.684V42.396C20.036 42.2467 20.0873 42.1207 20.19 42.018C20.302 41.906 20.4327 41.85 20.582 41.85C20.7407 41.85 20.8713 41.906 20.974 42.018C21.0767 42.1207 21.128 42.2467 21.128 42.396V50.684C21.128 50.992 21.1933 51.2113 21.324 51.342C21.3893 51.426 21.422 51.5147 21.422 51.608C21.422 51.748 21.3707 51.8693 21.268 51.972C21.1747 52.0653 21.058 52.112 20.918 52.112C20.33 52.112 20.036 51.636 20.036 50.684ZM25.4335 51.146C25.8349 51.146 26.3202 51.0153 26.8895 50.754C26.9455 50.726 27.0109 50.712 27.0855 50.712C27.2255 50.712 27.3422 50.7633 27.4355 50.866C27.5289 50.9593 27.5755 51.0713 27.5755 51.202C27.5755 51.51 27.3235 51.7387 26.8195 51.888C26.3155 52.0373 25.8115 52.112 25.3075 52.112C24.5329 52.112 23.9215 51.8973 23.4735 51.468C23.0349 51.0293 22.8155 50.4693 22.8155 49.788V47.17C22.8155 46.47 23.0395 45.9007 23.4875 45.462C23.9355 45.0233 24.5655 44.804 25.3775 44.804C26.1335 44.804 26.7075 45.0093 27.0995 45.42C27.5009 45.8213 27.7015 46.3767 27.7015 47.086C27.7015 48.4673 26.9129 49.158 25.3355 49.158C24.8782 49.158 24.4022 49.116 23.9075 49.032V49.858C23.9075 50.2593 24.0382 50.5767 24.2995 50.81C24.5609 51.034 24.9389 51.146 25.4335 51.146ZM26.6235 47.086C26.6235 46.2273 26.1989 45.798 25.3495 45.798C24.9015 45.798 24.5469 45.9147 24.2855 46.148C24.0335 46.372 23.9075 46.68 23.9075 47.072V48.136C24.3929 48.2013 24.8829 48.234 25.3775 48.234C25.8629 48.234 26.1895 48.1313 26.3575 47.926C26.5349 47.7113 26.6235 47.4313 26.6235 47.086ZM33.9255 45.532L32.0215 51.454C31.8722 51.8927 31.6342 52.112 31.3075 52.112C31.1209 52.112 30.9715 52.0653 30.8595 51.972C30.7569 51.8693 30.6682 51.7013 30.5935 51.468L28.6475 45.49C28.5915 45.3313 28.6242 45.1867 28.7455 45.056C28.8669 44.916 29.0115 44.846 29.1795 44.846C29.4222 44.846 29.5855 44.9673 29.6695 45.21L31.3075 50.488L32.9175 45.21C33.0015 44.9673 33.1649 44.846 33.4075 44.846C33.5755 44.846 33.7155 44.916 33.8275 45.056C33.9395 45.196 33.9722 45.3547 33.9255 45.532ZM37.4785 51.146C37.8798 51.146 38.3651 51.0153 38.9345 50.754C38.9905 50.726 39.0558 50.712 39.1305 50.712C39.2705 50.712 39.3871 50.7633 39.4805 50.866C39.5738 50.9593 39.6205 51.0713 39.6205 51.202C39.6205 51.51 39.3685 51.7387 38.8645 51.888C38.3605 52.0373 37.8565 52.112 37.3525 52.112C36.5778 52.112 35.9665 51.8973 35.5185 51.468C35.0798 51.0293 34.8605 50.4693 34.8605 49.788V47.17C34.8605 46.47 35.0845 45.9007 35.5325 45.462C35.9805 45.0233 36.6105 44.804 37.4225 44.804C38.1785 44.804 38.7525 45.0093 39.1445 45.42C39.5458 45.8213 39.7465 46.3767 39.7465 47.086C39.7465 48.4673 38.9578 49.158 37.3805 49.158C36.9231 49.158 36.4471 49.116 35.9525 49.032V49.858C35.9525 50.2593 36.0831 50.5767 36.3445 50.81C36.6058 51.034 36.9838 51.146 37.4785 51.146ZM38.6685 47.086C38.6685 46.2273 38.2438 45.798 37.3945 45.798C36.9465 45.798 36.5918 45.9147 36.3305 46.148C36.0785 46.372 35.9525 46.68 35.9525 47.072V48.136C36.4378 48.2013 36.9278 48.234 37.4225 48.234C37.9078 48.234 38.2345 48.1313 38.4025 47.926C38.5798 47.7113 38.6685 47.4313 38.6685 47.086ZM41.159 50.684V42.396C41.159 42.2467 41.2104 42.1207 41.313 42.018C41.425 41.906 41.5557 41.85 41.705 41.85C41.8637 41.85 41.9944 41.906 42.097 42.018C42.1997 42.1207 42.251 42.2467 42.251 42.396V50.684C42.251 50.992 42.3164 51.2113 42.447 51.342C42.5124 51.426 42.545 51.5147 42.545 51.608C42.545 51.748 42.4937 51.8693 42.391 51.972C42.2977 52.0653 42.181 52.112 42.041 52.112C41.453 52.112 41.159 51.636 41.159 50.684Z" fill="black"/>
</svg>
